<?xml version="1.0" encoding="iso-8859-1"?>
<!-- Generator: Adobe Illustrator 16.0.0, SVG Export Plug-In . SVG Version: 6.00 Build 0)  -->
<!DOCTYPE svg PUBLIC "-//W3C//DTD SVG 1.1//EN" "http://www.w3.org/Graphics/SVG/1.1/DTD/svg11.dtd">
<svg version="1.1" id="Capa_1" xmlns="http://www.w3.org/2000/svg" xmlns:xlink="http://www.w3.org/1999/xlink" x="0px" y="0px"
	 width="611.993px" height="611.993px" viewBox="0 0 611.993 611.993" style="enable-background:new 0 0 611.993 611.993;"
	 xml:space="preserve">
<g>
	<g>
		<path d="M600.388,65.514c-7.714-7.883-16.92-11.945-28.2-11.945H40.138c-11.28,0-20.819,4.062-28.525,11.945
			C4.062,73.22,0,82.759,0,93.707v424.58c0,10.947,3.899,20.649,11.612,28.525c7.543,7.713,17.252,11.612,28.525,11.612h532.05
			c11.28,0,20.649-3.899,28.193-11.612c7.713-7.884,11.612-17.578,11.612-28.525V93.707C612,82.759,607.931,73.22,600.388,65.514z
			 M575.507,518.287c0,2.321-0.998,3.319-3.319,3.319H40.138c-2.321,0-3.319-0.998-3.319-3.319V224.062h538.688V518.287z
			 M575.507,187.576H36.819V93.707c0-2.321,0.998-3.319,3.319-3.319h532.05c2.321,0,3.319,0.998,3.319,3.319V187.576
			L575.507,187.576z"/>
		<path d="M164.86,126.874c-7.126,6.8-6.963,18.576,0,26.204c7.628,6.963,19.403,7.126,26.204,0c7.133-7.473,6.963-19.241,0-26.204
			C184.094,119.911,172.333,119.741,164.86,126.874z"/>
		<path d="M119.415,126.874c-6.963,6.963-7.133,18.731,0,26.204c6.801,7.126,18.908,6.963,25.872,0
			c7.628-7.628,7.473-19.071,0-26.204C138.161,120.073,126.378,119.911,119.415,126.874z"/>
		<path d="M73.97,126.874c-6.963,6.963-7.133,18.731,0,26.204c6.8,7.126,18.908,6.963,25.872,0c7.628-7.628,7.473-19.071,0-26.204
			C92.716,120.073,80.934,119.911,73.97,126.874z"/>
	</g>
</g>
<g>
</g>
<g>
</g>
<g>
</g>
<g>
</g>
<g>
</g>
<g>
</g>
<g>
</g>
<g>
</g>
<g>
</g>
<g>
</g>
<g>
</g>
<g>
</g>
<g>
</g>
<g>
</g>
<g>
</g>
</svg>
